<svg width="87" height="62" viewBox="0 0 87 62" fill="none" xmlns="http://www.w3.org/2000/svg">
<rect x="1.03241" y="0.221191" width="85.8611" height="61.4123" rx="6.29869" fill="#DA161B"/>
<path fill-rule="evenodd" clip-rule="evenodd" d="M28.7427 15.9265V61.6334H38.3379V46.7848H49.1739C49.1739 46.7848 59.4722 44.8355 59.679 31.9857C59.8445 18.0417 49.7943 15.9265 49.0085 15.9265H28.7427ZM38.3379 18.8298H41.9361C41.9361 18.8298 49.4221 20.0326 49.6702 30.7505C49.5461 41.7247 41.9775 42.8031 41.9775 42.8031H38.3379V18.8298Z" fill="white"/>
<path d="M64.7253 46.7849H60.0931V20.1156C60.2167 18.1661 61.582 17.0049 61.582 17.0049C61.582 17.0049 62.9469 15.885 64.5598 15.885C66.6691 15.885 67.7031 17.0049 67.7031 17.0049L82.2614 34.8397V15.885H86.8935V44.4622C86.8935 44.4622 85.2392 47.0264 81.8478 46.9923C78.5391 46.9508 76.9261 44.4622 76.9261 44.4622L64.7253 28.8256V46.7849Z" fill="white"/>
<path d="M10.7103 46.7846H1.03241V15.9262C1.03241 15.9262 1.19783 15.9266 21.0914 15.9264C23.3247 15.9264 28.7841 18.3735 28.7841 24.0971C28.7841 30.6503 22.5803 32.2679 22.5803 32.2679L28.7841 43.8398V46.7846H20.4296L12.7783 32.5997C12.7783 32.5997 18.858 32.2679 18.858 25.5902C18.858 20.9864 14.6394 19.3273 13.3987 19.3273H10.7103V46.7846Z" fill="white"/>
</svg>
